<?xml version="1.0" encoding="UTF-8"?>
<svg version="1.1" xmlns="http://www.w3.org/2000/svg" width="1014" height="974">
<path d="M0 0 C334.62 0 669.24 0 1014 0 C1014 321.42 1014 642.84 1014 974 C679.38 974 344.76 974 0 974 C0 652.58 0 331.16 0 0 Z " fill="#FCFCFC" transform="translate(0,0)"/>
<path d="M0 0 C0.90024902 0.19287598 1.80049805 0.38575195 2.72802734 0.58447266 C3.69047363 0.79765137 4.65291992 1.01083008 5.64453125 1.23046875 C6.59537598 1.43462402 7.5462207 1.6387793 8.52587891 1.84912109 C11.67213873 2.52762514 14.81491216 3.22054444 17.95703125 3.91796875 C19.12492188 4.17707031 20.2928125 4.43617188 21.49609375 4.703125 C31.29356274 6.89425225 41.04926172 9.24164424 50.80175781 11.6237793 C58.91571988 13.59693255 67.04874346 15.45022995 75.20703125 17.23046875 C84.31245535 19.22037391 93.36120665 21.37316687 102.39453125 23.66796875 C112.09309637 26.13141779 121.81427532 28.43270266 131.58203125 30.60546875 C142.76468596 33.09869538 153.92024155 35.68983076 165.05618286 38.38458252 C166.67912609 38.77717397 168.30239006 39.16844223 169.92599487 39.55828857 C177.9414845 41.48522425 185.8770643 43.43488839 193.64453125 46.23046875 C193.93359375 48.46875 193.93359375 48.46875 193.64453125 51.23046875 C191.73046875 53.3359375 191.73046875 53.3359375 189.01953125 55.41796875 C188.00632812 56.20171875 186.993125 56.98546875 185.94921875 57.79296875 C181.53116711 61.0756991 177.05598646 64.27656498 172.55859375 67.44921875 C161.25900192 75.44175423 150.20903356 83.79252251 139.14453125 92.10546875 C135.97873957 94.48163752 132.81205461 96.85660894 129.64453125 99.23046875 C129.01385742 99.70371582 128.38318359 100.17696289 127.73339844 100.66455078 C126.16603896 101.83762556 124.59308223 103.00321235 123.01953125 104.16796875 C121.79363281 105.07869141 121.79363281 105.07869141 120.54296875 106.0078125 C118.64453125 107.23046875 118.64453125 107.23046875 116.64453125 107.23046875 C116.94343262 107.92809326 117.24233398 108.62571777 117.55029297 109.34448242 C118.68895505 112.34763381 119.44274799 115.27477307 120.15234375 118.40625 C120.41660156 119.56318359 120.68085937 120.72011719 120.953125 121.91210938 C121.22253906 123.11029297 121.49195313 124.30847656 121.76953125 125.54296875 C122.18525391 127.36924805 122.18525391 127.36924805 122.609375 129.23242188 C123.29139677 132.23096587 123.96964672 135.23031177 124.64453125 138.23046875 C125.9284375 138.51019531 127.21234375 138.78992188 128.53515625 139.078125 C143.98888734 142.54420347 159.20610794 146.92490034 173.57421875 153.69921875 C177.83114028 154.79156088 180.97676827 153.60248391 184.72265625 151.515625 C194.086496 144.95401808 202.4739909 138.00049097 208.64453125 128.23046875 C209.30453125 128.23046875 209.96453125 128.23046875 210.64453125 128.23046875 C211.12446281 130.7719931 211.60349852 133.31368097 212.08203125 135.85546875 C212.21673828 136.56832031 212.35144531 137.28117188 212.49023438 138.015625 C212.68842773 139.06943359 212.68842773 139.06943359 212.890625 140.14453125 C213.01107178 140.78342285 213.13151855 141.42231445 213.25561523 142.08056641 C213.44812866 143.14476807 213.44812866 143.14476807 213.64453125 144.23046875 C213.82306641 145.17986328 214.00160156 146.12925781 214.18554688 147.10742188 C214.64307851 150.22058397 214.75839503 153.14089592 214.7421875 156.28515625 C214.73896484 157.39375 214.73574219 158.50234375 214.73242188 159.64453125 C214.72404297 160.78664063 214.71566406 161.92875 214.70703125 163.10546875 C214.70251953 164.27078125 214.69800781 165.43609375 214.69335938 166.63671875 C214.68161906 169.5013552 214.66519695 172.36588508 214.64453125 175.23046875 C215.80094116 175.67724976 215.80094116 175.67724976 216.98071289 176.13305664 C230.60702351 181.74668199 243.2699617 193.78794409 253.94921875 203.74609375 C256.10290909 205.73123441 258.28683855 207.64697252 260.5078125 209.5546875 C264.56231297 213.09238192 268.29166687 216.85690879 271.95703125 220.79296875 C272.60438232 221.48696777 273.2517334 222.1809668 273.91870117 222.89599609 C279.89819335 229.38159875 285.38616282 236.15291217 290.64453125 243.23046875 C291.06009277 243.78379883 291.4756543 244.33712891 291.90380859 244.90722656 C308.5982069 267.23150967 322.13490151 292.03413023 331.64453125 318.23046875 C332.05759521 319.35630371 332.05759521 319.35630371 332.47900391 320.50488281 C338.23680615 336.37961909 341.94700526 352.68495018 344.89453125 369.29296875 C345.05775879 370.20780029 345.22098633 371.12263184 345.38916016 372.06518555 C347.60392893 385.10967833 347.88541254 398.09634317 347.89453125 411.29296875 C347.89554337 412.61580368 347.89554337 412.61580368 347.89657593 413.96536255 C347.80183239 492.33066508 316.36402289 561.25133765 262.14453125 616.91796875 C257.26806321 621.72538945 252.00708745 625.981028 246.64453125 630.23046875 C245.58394324 631.09289948 244.52406856 631.95620805 243.46484375 632.8203125 C228.90634076 644.60150107 213.26444325 654.61499966 196.64453125 663.23046875 C195.9175 663.60768066 195.19046875 663.98489258 194.44140625 664.37353516 C132.37998697 696.1057369 54.68250389 704.60555411 -12.35546875 684.23046875 C-13.68288086 683.83915771 -13.68288086 683.83915771 -15.03710938 683.43994141 C-59.41496637 670.18928217 -99.15948349 646.4120618 -132.35546875 614.23046875 C-133.00757324 613.60027832 -133.65967773 612.97008789 -134.33154297 612.32080078 C-142.20766325 604.67672922 -149.64012994 596.9341481 -156.35546875 588.23046875 C-157.14050781 587.25078125 -157.92554688 586.27109375 -158.734375 585.26171875 C-171.05919794 569.78098314 -180.61834559 552.94988944 -189.35546875 535.23046875 C-189.73832031 534.45622559 -190.12117188 533.68198242 -190.515625 532.88427734 C-208.8581325 495.22629722 -216.60669372 453.18424298 -216.54296875 411.54296875 C-216.54203217 410.74755676 -216.54109558 409.95214478 -216.54013062 409.13262939 C-216.51019872 397.38723534 -216.29318325 385.84029461 -214.35546875 374.23046875 C-214.12150391 372.7916333 -214.12150391 372.7916333 -213.8828125 371.32373047 C-208.73544324 340.48240965 -199.30819184 310.7685787 -184.35546875 283.23046875 C-183.98534668 282.54629883 -183.61522461 281.86212891 -183.23388672 281.15722656 C-179.27008318 273.87500588 -175.32496669 266.71201237 -170.25390625 260.125 C-168.9704527 257.41858708 -169.47920877 256.07418038 -170.35546875 253.23046875 C-171.26897447 250.94123436 -172.23173685 248.67132655 -173.23046875 246.41796875 C-177.11812954 237.61700802 -179.89596077 229.60300116 -181.54296875 220.10546875 C-181.72021484 219.14253906 -181.89746094 218.17960938 -182.08007812 217.1875 C-182.9181816 212.48247123 -183.58984196 208.03107859 -183.35546875 203.23046875 C-182.33710938 203.74996094 -181.31875 204.26945313 -180.26953125 204.8046875 C-169.91371838 209.96032869 -159.69847533 213.88447956 -148.35546875 216.23046875 C-147.19015625 216.49214844 -146.02484375 216.75382813 -144.82421875 217.0234375 C-140.50959578 217.55229299 -137.26690457 217.60993314 -133.62207031 214.97949219 C-129.76873629 211.60125554 -126.38961002 207.80647355 -122.98388672 203.98681641 C-119.20563967 199.91174755 -114.73282787 196.62744929 -110.35546875 193.23046875 C-109.42089844 192.46734375 -108.48632812 191.70421875 -107.5234375 190.91796875 C-102.47408288 186.87329958 -97.48487134 183.24471184 -91.859375 180.0234375 C-90.9007959 179.46688477 -89.9422168 178.91033203 -88.95458984 178.33691406 C-87.04077977 177.23991543 -85.11010987 176.17173021 -83.16259766 175.13574219 C-78.36035587 172.57398287 -78.36035587 172.57398287 -75.72119141 168.1081543 C-75.68589759 165.72377553 -75.94166548 163.57719198 -76.35546875 161.23046875 C-76.50259092 159.84388615 -76.64847997 158.45717199 -76.79296875 157.0703125 C-76.97859375 155.78253906 -77.16421875 154.49476563 -77.35546875 153.16796875 C-77.49855469 152.15573242 -77.49855469 152.15573242 -77.64453125 151.12304688 C-77.87597162 149.49139226 -78.11489265 147.86080141 -78.35546875 146.23046875 C-78.94102539 146.11727295 -79.52658203 146.00407715 -80.12988281 145.88745117 C-86.82170281 144.57387655 -93.46426264 143.09052422 -100.10546875 141.54296875 C-101.21438477 141.28531738 -102.32330078 141.02766602 -103.46582031 140.76220703 C-105.84582779 140.20903219 -108.22570691 139.65530485 -110.60546875 139.10107422 C-113.81650271 138.35559589 -117.02863966 137.61534011 -120.24163818 136.87840271 C-122.23073738 136.42181334 -124.21943668 135.96352206 -126.20800781 135.50463867 C-128.73019125 134.92275433 -131.25294316 134.34332625 -133.77636719 133.7668457 C-142.05679588 131.84877709 -150.20592236 129.63680641 -158.35546875 127.23046875 C-158.21447754 127.99077393 -158.07348633 128.7510791 -157.92822266 129.53442383 C-157.27877561 133.03723588 -156.62962053 136.54010197 -155.98046875 140.04296875 C-155.75875 141.23857422 -155.53703125 142.43417969 -155.30859375 143.66601562 C-155.08945312 144.84873047 -154.8703125 146.03144531 -154.64453125 147.25 C-154.42627686 148.42272461 -154.20802246 149.59544922 -153.9831543 150.80371094 C-153.57701165 153.02098756 -153.18189505 155.24032433 -152.80004883 157.46191406 C-152.63142334 158.43870117 -152.46279785 159.41548828 -152.2890625 160.421875 C-152.07334595 161.7068689 -152.07334595 161.7068689 -151.85327148 163.01782227 C-151.11590517 166.29528715 -149.72587968 168.86005782 -147.35546875 171.23046875 C-147.44293159 172.66908169 -147.55112223 174.10644383 -147.66796875 175.54296875 C-147.76003908 181.37687955 -145.66849648 185.35694092 -142.86328125 190.37109375 C-140.21650727 195.39036461 -139.0853047 199.55702366 -139.35546875 205.23046875 C-140.44859375 205.53984375 -141.54171875 205.84921875 -142.66796875 206.16796875 C-144.90954869 206.81384772 -147.14240385 207.49278045 -149.35546875 208.23046875 C-150.91665303 208.2978774 -152.48049395 208.31561331 -154.04296875 208.29296875 C-154.85121094 208.28394531 -155.65945313 208.27492188 -156.4921875 208.265625 C-157.41451172 208.24822266 -157.41451172 208.24822266 -158.35546875 208.23046875 C-158.38459223 204.50131858 -158.40230912 200.77219785 -158.41796875 197.04296875 C-158.42634766 195.98787109 -158.43472656 194.93277344 -158.44335938 193.84570312 C-158.44658203 192.82412109 -158.44980469 191.80253906 -158.453125 190.75 C-158.45836182 189.81260986 -158.46359863 188.87521973 -158.46899414 187.90942383 C-158.35546875 185.23046875 -158.35546875 185.23046875 -157.75561523 182.47143555 C-157.62356689 181.7319165 -157.49151855 180.99239746 -157.35546875 180.23046875 C-157.85046875 179.77671875 -158.34546875 179.32296875 -158.85546875 178.85546875 C-159.59796875 178.05109375 -159.59796875 178.05109375 -160.35546875 177.23046875 C-160.04296875 174.10546875 -160.04296875 174.10546875 -159.35546875 170.23046875 C-158.80194972 161.38354601 -160.6933267 152.93369042 -162.35546875 144.29296875 C-162.78547738 142.02051264 -163.21321041 139.74764655 -163.6394043 137.47447205 C-163.9037922 136.06833185 -164.17078625 134.6626786 -164.44067383 133.25758362 C-165.35546875 128.4485831 -165.35546875 128.4485831 -165.35546875 126.23046875 C-166.67546875 125.57046875 -167.99546875 124.91046875 -169.35546875 124.23046875 C-169.81640625 121.578125 -169.81640625 121.578125 -169.35546875 118.23046875 C-167.21855605 115.91828119 -164.62486823 114.35129097 -161.98046875 112.66796875 C-160.40791261 111.61468565 -158.83632841 110.55995024 -157.265625 109.50390625 C-156.04383545 108.69518066 -156.04383545 108.69518066 -154.79736328 107.87011719 C-150.93308182 105.2753847 -147.17849377 102.53493202 -143.41796875 99.79296875 C-141.90915043 98.7001117 -140.40003419 97.60766583 -138.890625 96.515625 C-138.14184082 95.97309082 -137.39305664 95.43055664 -136.62158203 94.87158203 C-132.86902075 92.15398702 -129.11203456 89.44252402 -125.35546875 86.73046875 C-123.85544729 85.64716513 -122.35544729 84.56383179 -120.85546875 83.48046875 C-111.85546875 76.98046875 -111.85546875 76.98046875 -109.60571289 75.35571289 C-108.10481325 74.27168459 -106.60399953 73.18753733 -105.10327148 72.10327148 C-101.36772908 69.4045922 -97.63074621 66.70795563 -93.890625 64.015625 C-86.18083902 58.46242251 -78.49789244 52.8760967 -70.85546875 47.23046875 C-61.00139054 39.95104253 -51.06972541 32.78216551 -41.12597656 25.62597656 C-38.88936735 24.0158137 -36.653434 22.40471943 -34.41796875 20.79296875 C-33.32536743 20.00539185 -33.32536743 20.00539185 -32.21069336 19.2019043 C-25.55966563 14.39761439 -18.95746024 9.5278352 -12.37133789 4.63500977 C-11.61328857 4.07354248 -10.85523926 3.5120752 -10.07421875 2.93359375 C-9.40326172 2.43504883 -8.73230469 1.93650391 -8.04101562 1.42285156 C-4.92989836 -0.77800254 -3.67431187 -0.80064423 0 0 Z " fill="#3C85B0" transform="translate(439.35546875,144.76953125)"/>
<path d="M0 0 C20.01709313 16.91252182 29.84392159 37.92934742 35.64453125 63.234375 C35.89444824 64.28383301 35.89444824 64.28383301 36.14941406 65.35449219 C42.54716892 92.86616266 39.07755205 121.46910603 24.58203125 145.7890625 C15.74436146 159.33799008 4.54790586 169.19287449 -9.35546875 177.234375 C-10.22606934 177.75789551 -10.22606934 177.75789551 -11.11425781 178.29199219 C-30.13778682 189.57253791 -60.19102844 190.51370087 -81.35546875 185.234375 C-93.66122707 181.62187864 -109.09679735 176.4930464 -118.35546875 167.234375 C-118.04296875 164.984375 -118.04296875 164.984375 -117.35546875 162.234375 C-116.35035237 157.32047272 -115.4130461 152.21443192 -116.35546875 147.234375 C-118.45100194 144.8701837 -119.72761676 143.77223499 -122.35546875 142.234375 C-123.05542969 141.81542969 -123.75539063 141.39648438 -124.4765625 140.96484375 C-126.74308518 139.6646375 -129.04004086 138.44497943 -131.35546875 137.234375 C-132.45181641 136.62142578 -132.45181641 136.62142578 -133.5703125 135.99609375 C-134.26253906 135.62097656 -134.95476562 135.24585938 -135.66796875 134.859375 C-136.28285156 134.52164063 -136.89773438 134.18390625 -137.53125 133.8359375 C-139.99468945 133.02358273 -140.97183841 133.18396163 -143.35546875 134.234375 C-153.80504861 143.88252875 -153.80504861 143.88252875 -159.703125 156.2890625 C-159.4515837 161.46075154 -156.88178739 164.58425907 -153.4375 168.27734375 C-152.35546875 170.234375 -152.35546875 170.234375 -152.91796875 172.63671875 C-155.71273963 177.68705199 -159.58564457 181.89183963 -163.35546875 186.234375 C-163.89042969 186.85570312 -164.42539062 187.47703125 -164.9765625 188.1171875 C-179.60731157 203.849993 -203.96045567 216.94522901 -225.53955078 218.45751953 C-254.17857119 219.38680928 -277.19934383 214.04979365 -299.13671875 194.79296875 C-313.48525723 180.98466139 -322.22341062 163.26929438 -327.35546875 144.234375 C-327.56719727 143.45368652 -327.77892578 142.67299805 -327.99707031 141.86865234 C-331.21879549 129.30086071 -331.76417885 116.76311882 -331.85546875 103.859375 C-331.86600281 103.10400452 -331.87653687 102.34863403 -331.88739014 101.57037354 C-332.03639662 87.76081265 -330.28356023 74.25430993 -323.60546875 61.921875 C-323.25967773 61.26219727 -322.91388672 60.60251953 -322.55761719 59.92285156 C-311.86368506 40.01837046 -295.00699506 24.36730325 -273.35546875 17.234375 C-263.43014372 14.48440136 -253.75606614 13.05613356 -243.48046875 13.109375 C-242.37251953 13.10357422 -242.37251953 13.10357422 -241.2421875 13.09765625 C-232.06183972 13.11356673 -223.52219459 14.10717693 -214.73046875 16.796875 C-213.86800537 17.06008545 -213.00554199 17.3232959 -212.11694336 17.59448242 C-188.61822377 25.0749912 -169.26334915 39.77130893 -154.35546875 59.234375 C-154.14978271 58.72165039 -153.94409668 58.20892578 -153.73217773 57.68066406 C-148.07731017 43.67753761 -142.16953989 30.88343003 -132.35546875 19.234375 C-131.700625 18.43386719 -131.04578125 17.63335937 -130.37109375 16.80859375 C-98.43373454 -20.66535145 -39.70764706 -30.71835965 0 0 Z " fill="#E8F2F6" transform="translate(634.35546875,386.765625)"/>
<path d="M0 0 C0.90024902 0.19287598 1.80049805 0.38575195 2.72802734 0.58447266 C3.69047363 0.79765137 4.65291992 1.01083008 5.64453125 1.23046875 C6.59537598 1.43462402 7.5462207 1.6387793 8.52587891 1.84912109 C11.67213873 2.52762514 14.81491216 3.22054444 17.95703125 3.91796875 C19.12492188 4.17707031 20.2928125 4.43617188 21.49609375 4.703125 C31.29356274 6.89425225 41.04926172 9.24164424 50.80175781 11.6237793 C58.91571988 13.59693255 67.04874346 15.45022995 75.20703125 17.23046875 C84.31245535 19.22037391 93.36120665 21.37316687 102.39453125 23.66796875 C112.09309637 26.13141779 121.81427532 28.43270266 131.58203125 30.60546875 C142.76468596 33.09869538 153.92024155 35.68983076 165.05618286 38.38458252 C166.67912609 38.77717397 168.30239006 39.16844223 169.92599487 39.55828857 C177.9414845 41.48522425 185.8770643 43.43488839 193.64453125 46.23046875 C193.93359375 48.46875 193.93359375 48.46875 193.64453125 51.23046875 C191.73046875 53.3359375 191.73046875 53.3359375 189.01953125 55.41796875 C188.00632812 56.20171875 186.993125 56.98546875 185.94921875 57.79296875 C181.53116711 61.0756991 177.05598646 64.27656498 172.55859375 67.44921875 C161.25900192 75.44175423 150.20903356 83.79252251 139.14453125 92.10546875 C135.97873957 94.48163752 132.81205461 96.85660894 129.64453125 99.23046875 C129.01385742 99.70371582 128.38318359 100.17696289 127.73339844 100.66455078 C126.16603896 101.83762556 124.59308223 103.00321235 123.01953125 104.16796875 C121.79363281 105.07869141 121.79363281 105.07869141 120.54296875 106.0078125 C118.64453125 107.23046875 118.64453125 107.23046875 116.64453125 107.23046875 C116.94343262 107.92809326 117.24233398 108.62571777 117.55029297 109.34448242 C118.68895505 112.34763381 119.44274799 115.27477307 120.15234375 118.40625 C120.41660156 119.56318359 120.68085937 120.72011719 120.953125 121.91210938 C121.22253906 123.11029297 121.49195313 124.30847656 121.76953125 125.54296875 C122.18525391 127.36924805 122.18525391 127.36924805 122.609375 129.23242188 C123.29139677 132.23096587 123.96964672 135.23031177 124.64453125 138.23046875 C125.9284375 138.51019531 127.21234375 138.78992188 128.53515625 139.078125 C145.50979383 142.88443138 161.72396701 148.20859387 177.64453125 155.23046875 C173.41508818 158.66295594 169.10961992 159.92525517 163.95703125 161.48046875 C163.09658203 161.76148438 162.23613281 162.0425 161.34960938 162.33203125 C152.03878346 165.16667606 144.95077922 163.5941006 135.95703125 160.48046875 C109.64813946 151.82598515 89.01962984 149.36800841 63.6484375 162.1015625 C52.22327068 168.06122763 41.75965286 176.11534714 32.64453125 185.23046875 C26.33288873 184.83898713 20.71631393 182.65686254 14.84375 180.49023438 C3.37079935 176.45568018 -8.3426294 175.83964163 -20.41796875 175.85546875 C-21.42836212 175.85578598 -21.42836212 175.85578598 -22.45916748 175.85610962 C-38.97837564 175.9076025 -54.21595735 178.35620325 -69.35546875 185.23046875 C-70.33386719 185.65972656 -71.31226563 186.08898437 -72.3203125 186.53125 C-84.36508414 192.15003309 -94.71675869 200.27200874 -104.47412109 209.20751953 C-113.23205429 217.04577777 -123.91890325 218.59939022 -135.35546875 218.23046875 C-133.74797418 214.22600002 -130.94219115 211.51258516 -127.91796875 208.54296875 C-127.38228271 208.0133252 -126.84659668 207.48368164 -126.29467773 206.93798828 C-121.25168642 202.01752584 -115.90568722 197.568748 -110.35546875 193.23046875 C-109.41832031 192.46476563 -108.48117187 191.6990625 -107.515625 190.91015625 C-102.46813033 186.86956206 -97.48145284 183.24275433 -91.859375 180.0234375 C-90.9007959 179.46688477 -89.9422168 178.91033203 -88.95458984 178.33691406 C-87.04077977 177.23991543 -85.11010987 176.17173021 -83.16259766 175.13574219 C-78.36035587 172.57398287 -78.36035587 172.57398287 -75.72119141 168.1081543 C-75.68589759 165.72377553 -75.94166548 163.57719198 -76.35546875 161.23046875 C-76.50259092 159.84388615 -76.64847997 158.45717199 -76.79296875 157.0703125 C-76.97859375 155.78253906 -77.16421875 154.49476563 -77.35546875 153.16796875 C-77.45085937 152.49314453 -77.54625 151.81832031 -77.64453125 151.12304688 C-77.87597162 149.49139226 -78.11489265 147.86080141 -78.35546875 146.23046875 C-79.23380371 146.06067505 -79.23380371 146.06067505 -80.12988281 145.88745117 C-86.82170281 144.57387655 -93.46426264 143.09052422 -100.10546875 141.54296875 C-101.21438477 141.28531738 -102.32330078 141.02766602 -103.46582031 140.76220703 C-105.84582779 140.20903219 -108.22570691 139.65530485 -110.60546875 139.10107422 C-113.81650271 138.35559589 -117.02863966 137.61534011 -120.24163818 136.87840271 C-122.23073738 136.42181334 -124.21943668 135.96352206 -126.20800781 135.50463867 C-128.73019125 134.92275433 -131.25294316 134.34332625 -133.77636719 133.7668457 C-142.05679588 131.84877709 -150.20592236 129.63680641 -158.35546875 127.23046875 C-158.21447754 127.99077393 -158.07348633 128.7510791 -157.92822266 129.53442383 C-157.27877561 133.03723588 -156.62962053 136.54010197 -155.98046875 140.04296875 C-155.75875 141.23857422 -155.53703125 142.43417969 -155.30859375 143.66601562 C-154.97988281 145.44008789 -154.97988281 145.44008789 -154.64453125 147.25 C-154.42627686 148.42272461 -154.20802246 149.59544922 -153.9831543 150.80371094 C-153.57701165 153.02098756 -153.18189505 155.24032433 -152.80004883 157.46191406 C-152.63142334 158.43870117 -152.46279785 159.41548828 -152.2890625 160.421875 C-152.14525146 161.2785376 -152.00144043 162.1352002 -151.85327148 163.01782227 C-151.11590517 166.29528715 -149.72587968 168.86005782 -147.35546875 171.23046875 C-147.44293159 172.66908169 -147.55112223 174.10644383 -147.66796875 175.54296875 C-147.76003908 181.37687955 -145.66849648 185.35694092 -142.86328125 190.37109375 C-140.21650727 195.39036461 -139.0853047 199.55702366 -139.35546875 205.23046875 C-140.44859375 205.53984375 -141.54171875 205.84921875 -142.66796875 206.16796875 C-144.90954869 206.81384772 -147.14240385 207.49278045 -149.35546875 208.23046875 C-150.91665303 208.2978774 -152.48049395 208.31561331 -154.04296875 208.29296875 C-154.85121094 208.28394531 -155.65945313 208.27492188 -156.4921875 208.265625 C-157.41451172 208.24822266 -157.41451172 208.24822266 -158.35546875 208.23046875 C-158.38459223 204.50131858 -158.40230912 200.77219785 -158.41796875 197.04296875 C-158.42634766 195.98787109 -158.43472656 194.93277344 -158.44335938 193.84570312 C-158.44658203 192.82412109 -158.44980469 191.80253906 -158.453125 190.75 C-158.45836182 189.81260986 -158.46359863 188.87521973 -158.46899414 187.90942383 C-158.35546875 185.23046875 -158.35546875 185.23046875 -157.75561523 182.47143555 C-157.62356689 181.7319165 -157.49151855 180.99239746 -157.35546875 180.23046875 C-157.85046875 179.77671875 -158.34546875 179.32296875 -158.85546875 178.85546875 C-159.59796875 178.05109375 -159.59796875 178.05109375 -160.35546875 177.23046875 C-160.04296875 174.10546875 -160.04296875 174.10546875 -159.35546875 170.23046875 C-158.80194972 161.38354601 -160.6933267 152.93369042 -162.35546875 144.29296875 C-162.78547738 142.02051264 -163.21321041 139.74764655 -163.6394043 137.47447205 C-163.9037922 136.06833185 -164.17078625 134.6626786 -164.44067383 133.25758362 C-165.35546875 128.4485831 -165.35546875 128.4485831 -165.35546875 126.23046875 C-166.67546875 125.57046875 -167.99546875 124.91046875 -169.35546875 124.23046875 C-169.81640625 121.578125 -169.81640625 121.578125 -169.35546875 118.23046875 C-167.21855605 115.91828119 -164.62486823 114.35129097 -161.98046875 112.66796875 C-160.40791261 111.61468565 -158.83632841 110.55995024 -157.265625 109.50390625 C-156.45109863 108.96475586 -155.63657227 108.42560547 -154.79736328 107.87011719 C-150.93308182 105.2753847 -147.17849377 102.53493202 -143.41796875 99.79296875 C-141.90915043 98.7001117 -140.40003419 97.60766583 -138.890625 96.515625 C-138.14184082 95.97309082 -137.39305664 95.43055664 -136.62158203 94.87158203 C-132.86902075 92.15398702 -129.11203456 89.44252402 -125.35546875 86.73046875 C-123.85544729 85.64716513 -122.35544729 84.56383179 -120.85546875 83.48046875 C-111.85546875 76.98046875 -111.85546875 76.98046875 -109.60571289 75.35571289 C-108.10481325 74.27168459 -106.60399953 73.18753733 -105.10327148 72.10327148 C-101.36772908 69.4045922 -97.63074621 66.70795563 -93.890625 64.015625 C-86.18083902 58.46242251 -78.49789244 52.8760967 -70.85546875 47.23046875 C-61.00139054 39.95104253 -51.06972541 32.78216551 -41.12597656 25.62597656 C-38.88936735 24.0158137 -36.653434 22.40471943 -34.41796875 20.79296875 C-33.32536743 20.00539185 -33.32536743 20.00539185 -32.21069336 19.2019043 C-25.55966563 14.39761439 -18.95746024 9.5278352 -12.37133789 4.63500977 C-11.61328857 4.07354248 -10.85523926 3.5120752 -10.07421875 2.93359375 C-9.40326172 2.43504883 -8.73230469 1.93650391 -8.04101562 1.42285156 C-4.92989836 -0.77800254 -3.67431187 -0.80064423 0 0 Z " fill="#1D254A" transform="translate(439.35546875,144.76953125)"/>
<path d="M0 0 C20.01709313 16.91252182 29.84392159 37.92934742 35.64453125 63.234375 C35.89444824 64.28383301 35.89444824 64.28383301 36.14941406 65.35449219 C42.54716892 92.86616266 39.07755205 121.46910603 24.58203125 145.7890625 C15.74436146 159.33799008 4.54790586 169.19287449 -9.35546875 177.234375 C-10.22606934 177.75789551 -10.22606934 177.75789551 -11.11425781 178.29199219 C-30.13778682 189.57253791 -60.19102844 190.51370087 -81.35546875 185.234375 C-93.66122707 181.62187864 -109.09679735 176.4930464 -118.35546875 167.234375 C-118.04296875 164.984375 -118.04296875 164.984375 -117.35546875 162.234375 C-116.35035237 157.32047272 -115.4130461 152.21443192 -116.35546875 147.234375 C-118.45100194 144.8701837 -119.72761676 143.77223499 -122.35546875 142.234375 C-123.05542969 141.81542969 -123.75539063 141.39648438 -124.4765625 140.96484375 C-126.74308518 139.6646375 -129.04004086 138.44497943 -131.35546875 137.234375 C-132.45181641 136.62142578 -132.45181641 136.62142578 -133.5703125 135.99609375 C-134.26253906 135.62097656 -134.95476562 135.24585938 -135.66796875 134.859375 C-136.28285156 134.52164063 -136.89773438 134.18390625 -137.53125 133.8359375 C-139.99468945 133.02358273 -140.97183841 133.18396163 -143.35546875 134.234375 C-153.80504861 143.88252875 -153.80504861 143.88252875 -159.703125 156.2890625 C-159.4515837 161.46075154 -156.88178739 164.58425907 -153.4375 168.27734375 C-152.35546875 170.234375 -152.35546875 170.234375 -152.91796875 172.63671875 C-155.71273963 177.68705199 -159.58564457 181.89183963 -163.35546875 186.234375 C-163.89042969 186.85570312 -164.42539062 187.47703125 -164.9765625 188.1171875 C-179.60731157 203.849993 -203.96045567 216.94522901 -225.53955078 218.45751953 C-254.17857119 219.38680928 -277.19934383 214.04979365 -299.13671875 194.79296875 C-313.48525723 180.98466139 -322.22341062 163.26929438 -327.35546875 144.234375 C-327.56719727 143.45368652 -327.77892578 142.67299805 -327.99707031 141.86865234 C-331.21879549 129.30086071 -331.76417885 116.76311882 -331.85546875 103.859375 C-331.86600281 103.10400452 -331.87653687 102.34863403 -331.88739014 101.57037354 C-332.03639662 87.76081265 -330.28356023 74.25430993 -323.60546875 61.921875 C-323.25967773 61.26219727 -322.91388672 60.60251953 -322.55761719 59.92285156 C-311.86368506 40.01837046 -295.00699506 24.36730325 -273.35546875 17.234375 C-263.43014372 14.48440136 -253.75606614 13.05613356 -243.48046875 13.109375 C-242.37251953 13.10357422 -242.37251953 13.10357422 -241.2421875 13.09765625 C-232.06183972 13.11356673 -223.52219459 14.10717693 -214.73046875 16.796875 C-213.86800537 17.06008545 -213.00554199 17.3232959 -212.11694336 17.59448242 C-188.61822377 25.0749912 -169.26334915 39.77130893 -154.35546875 59.234375 C-154.14978271 58.72165039 -153.94409668 58.20892578 -153.73217773 57.68066406 C-148.07731017 43.67753761 -142.16953989 30.88343003 -132.35546875 19.234375 C-131.700625 18.43386719 -131.04578125 17.63335937 -130.37109375 16.80859375 C-98.43373454 -20.66535145 -39.70764706 -30.71835965 0 0 Z M-116.48046875 44.359375 C-128.7803637 58.86110299 -134.57697325 74.65114594 -134.41796875 93.609375 C-134.41120117 95.14271484 -134.41120117 95.14271484 -134.40429688 96.70703125 C-134.39257175 99.21620694 -134.37616051 101.7252599 -134.35546875 104.234375 C-135.34546875 104.19957031 -136.33546875 104.16476562 -137.35546875 104.12890625 C-144.59479642 103.95302989 -150.71482737 103.98181595 -157.35546875 107.234375 C-157.52046875 106.079375 -157.68546875 104.924375 -157.85546875 103.734375 C-161.66369953 86.73142912 -173.77571291 69.72091911 -188.05419922 60.08837891 C-206.27479033 48.57772071 -225.85100632 44.46590146 -247.2578125 47.8515625 C-259.88545307 51.12057369 -272.68047791 57.43363032 -282.35546875 66.234375 C-283.03867187 66.84925781 -283.721875 67.46414063 -284.42578125 68.09765625 C-298.65506361 81.59653818 -307.18449291 99.87092219 -307.77709961 119.4699707 C-307.90861577 139.79022943 -301.17152746 159.2759096 -287.2734375 174.33984375 C-275.36438076 186.1033723 -261.56922025 192.77674366 -245.35546875 196.234375 C-244.54851562 196.42515625 -243.7415625 196.6159375 -242.91015625 196.8125 C-224.48602181 199.85501761 -203.68734582 195.08493194 -188.54296875 184.296875 C-186.80369316 182.95571686 -185.07342718 181.60273298 -183.35546875 180.234375 C-182.71996094 179.76386719 -182.08445312 179.29335938 -181.4296875 178.80859375 C-167.23741987 167.74841277 -159.20457278 149.62254325 -156.35546875 132.234375 C-156.08911082 127.87221801 -156.08665021 123.59520903 -156.35546875 119.234375 C-147.99673603 115.65206098 -140.27561818 115.93886085 -131.35546875 116.234375 C-130.95328125 117.43320312 -130.95328125 117.43320312 -130.54296875 118.65625 C-127.52670087 127.10973761 -123.70962082 133.9955614 -118.35546875 141.234375 C-117.8965625 141.87890625 -117.43765625 142.5234375 -116.96484375 143.1875 C-105.66402103 157.7560305 -87.09143753 165.83603124 -69.41796875 168.921875 C-68.06555879 169.0467964 -66.7109715 169.14934346 -65.35546875 169.234375 C-64.53304687 169.29882812 -63.710625 169.36328125 -62.86328125 169.4296875 C-42.45368509 170.27773166 -22.73056897 162.45500258 -7.35546875 149.234375 C4.18603884 138.44721431 10.4609542 125.20717707 14.64453125 110.234375 C14.89074219 109.36296875 15.13695312 108.4915625 15.390625 107.59375 C20.29967789 87.14500554 13.76625836 68.14535825 3.1796875 50.83984375 C1.77370297 48.83886286 0.28509124 47.04859787 -1.35546875 45.234375 C-2.1340625 44.36425781 -2.91265625 43.49414062 -3.71484375 42.59765625 C-17.11857117 28.39977736 -34.73345102 19.7547337 -54.359375 18.99609375 C-78.99602932 18.5011511 -99.25571615 26.35781983 -116.48046875 44.359375 Z " fill="#D5E9F0" transform="translate(634.35546875,386.765625)"/>
<path d="M0 0 C3.99713628 1.33237876 4.9968224 3.84459291 7 7.3125 C9.64463178 11.88822002 9.64463178 11.88822002 12.8125 16.10546875 C14 18 14 18 13.85546875 20.30859375 C12.80456701 23.61485539 11.58739568 26.83816706 10.3125 30.0625 C7.94213746 36.19675851 5.94255898 42.36881695 4.125 48.6875 C2.12464393 55.6322953 -0.24236091 62.29691996 -2.9375 69 C-17.7645152 106.69802264 -21.78166384 148.98397337 -16 189 C-15.87109375 189.92651367 -15.7421875 190.85302734 -15.609375 191.80761719 C-6.98496262 252.43803475 24.35915219 310.96206179 73 349 C74.00804687 349.80179688 75.01609375 350.60359375 76.0546875 351.4296875 C93.05980893 364.84842699 111.50839328 375.59816617 131 385 C129.63696103 388.15543521 128.1817387 389.93188133 125.5 392.0625 C123.06335088 394.00872186 121.77737879 395.33393182 120 398 C119.68166267 401.05603838 119.53778783 403.13335219 121 405.875 C124.26415834 407.71108906 127.41157888 407.58775863 131 407 C133.46277673 406.09410601 135.77251592 405.05142058 138.1171875 403.875 C140 403 140 403 142 403 C142 408.28 142 413.56 142 419 C150.47298099 420.44391188 150.47298099 420.44391188 158 417 C160.80419083 414.10881785 163.43549674 411.10474125 166 408 C168.84647028 410.71671665 170.83390746 413.71592421 173 417 C174.93731528 419.36410488 174.93731528 419.36410488 178.4375 419.3125 C181.86120711 419.29508192 181.86120711 419.29508192 183.8125 417.8125 C186.67581507 413.442177 187.39475277 409.14460147 188 404 C194.12734847 403.79575505 199.65378867 404.37767319 205.67871094 405.46704102 C240.83754175 411.10889103 277.70106516 405.66831535 311.38598633 395.2355957 C312.32724365 394.94515381 313.26850098 394.65471191 314.23828125 394.35546875 C315.06368408 394.09403076 315.88908691 393.83259277 316.73950195 393.56323242 C319 393 319 393 323 393 C323.08636719 393.66386719 323.17273438 394.32773437 323.26171875 395.01171875 C323.96403849 399.42537952 324.62661626 402.45592654 327.1875 406.1875 C329.95034673 408.31771319 329.95034673 408.31771319 333.625 408.0625 C336.91867335 407.26842785 336.91867335 407.26842785 338.75 405.5 C340.59699515 401.80600969 341.81047468 397.9482117 343 394 C346.1950263 395.4424498 348.63222676 397.25295032 351.3125 399.5 C355.18307072 402.58235847 358.16440197 404.07403442 363 405 C360.36295277 408.17968872 357.02643966 409.54967021 353.3125 411.125 C352.62260986 411.42067871 351.93271973 411.71635742 351.22192383 412.02099609 C290.5980679 437.60997171 220.69257584 445.35830721 157 426 C155.67258789 425.60868896 155.67258789 425.60868896 154.31835938 425.20947266 C109.94050238 411.95881342 70.19598526 388.18159305 37 356 C36.34789551 355.36980957 35.69579102 354.73961914 35.02392578 354.09033203 C27.1478055 346.44626047 19.71533881 338.70367935 13 330 C12.21496094 329.0203125 11.42992187 328.040625 10.62109375 327.03125 C-1.70372919 311.55051439 -11.26287684 294.71942069 -20 277 C-20.57427734 275.83863525 -20.57427734 275.83863525 -21.16015625 274.65380859 C-39.50266375 236.99582847 -47.25122497 194.95377423 -47.1875 153.3125 C-47.18656342 152.51708801 -47.18562683 151.72167603 -47.18466187 150.90216064 C-47.15472997 139.15676659 -46.9377145 127.60982586 -45 116 C-44.84402344 115.04077637 -44.68804687 114.08155273 -44.52734375 113.09326172 C-39.37997449 82.2519409 -29.95272309 52.53810995 -15 25 C-14.62987793 24.31583008 -14.25975586 23.63166016 -13.87841797 22.92675781 C-9.59356988 15.05472049 -5.18677586 7.32250709 0 0 Z " fill="#1C264B" transform="translate(270,403)"/>
<path d="M0 0 C14.63259926 5.3185397 28.04175333 18.0132105 39.3046875 28.515625 C41.45837784 30.50076566 43.6423073 32.41650377 45.86328125 34.32421875 C49.91778172 37.86191317 53.64713562 41.62644004 57.3125 45.5625 C58.28352661 46.60349854 58.28352661 46.60349854 59.27416992 47.66552734 C65.2536621 54.15113 70.74163157 60.92244342 76 68 C76.41556152 68.55333008 76.83112305 69.10666016 77.25927734 69.67675781 C93.95367565 92.00104092 107.49037026 116.80366148 117 143 C117.27537598 143.75055664 117.55075195 144.50111328 117.83447266 145.27441406 C123.5922749 161.14915034 127.30247401 177.45448143 130.25 194.0625 C130.41322754 194.97733154 130.57645508 195.89216309 130.74462891 196.8347168 C132.95939768 209.87920958 133.24088129 222.86587442 133.25 236.0625 C133.25067474 236.94438995 133.25134949 237.82627991 133.25204468 238.7348938 C133.15730114 317.10019633 101.71949164 386.0208689 47.5 441.6875 C42.62353196 446.4949207 37.3625562 450.75055925 32 455 C30.93941199 455.86243073 29.87953731 456.7257393 28.8203125 457.58984375 C22.32149088 462.84671907 15.63739391 467.72900205 8.6875 472.375 C7.59489868 473.10650269 7.59489868 473.10650269 6.48022461 473.8527832 C-7.40172616 483 -7.40172616 483 -12 483 C-12.12117187 482.26394531 -12.24234375 481.52789063 -12.3671875 480.76953125 C-12.53476562 479.79371094 -12.70234375 478.81789063 -12.875 477.8125 C-13.03742187 476.84957031 -13.19984375 475.88664062 -13.3671875 474.89453125 C-13.98039517 472.08967396 -14.85666343 469.62775253 -16 467 C-15.14792969 467.16113281 -14.29585937 467.32226562 -13.41796875 467.48828125 C-10.00235501 467.99964742 -6.76407561 468.16745601 -3.3125 468.1875 C-2.19488281 468.20167969 -1.07726562 468.21585938 0.07421875 468.23046875 C3.19207979 468.22413674 3.19207979 468.22413674 6 466 C6.91884408 462.67291743 6.91884408 462.67291743 6 459 C2.16167921 454.90579115 -2.92964233 452.28166095 -8 450 C-8 449.34 -8 448.68 -8 448 C-6.66162109 446.86181641 -6.66162109 446.86181641 -4.7734375 445.6015625 C-4.07822998 445.128396 -3.38302246 444.65522949 -2.66674805 444.16772461 C-1.91047119 443.65862549 -1.15419434 443.14952637 -0.375 442.625 C7.90971994 436.91286262 15.51850115 430.71639625 23 424 C23.5455957 423.51611816 24.09119141 423.03223633 24.65332031 422.53369141 C30.86332472 417.02254421 36.68612046 411.39486146 42 405 C42.81855469 404.06929687 43.63710938 403.13859375 44.48046875 402.1796875 C63.4074531 380.56824114 76.99577724 355.39743133 88 329 C88.32621338 328.22205078 88.65242676 327.44410156 88.98852539 326.64257812 C91.33556689 320.92920218 93.30225144 315.20556282 94.9375 309.25 C95.18910889 308.33404053 95.44071777 307.41808105 95.69995117 306.47436523 C99.09581791 293.51968341 101.02602242 280.2322129 103 267 C103.18103271 265.89841553 103.36206543 264.79683105 103.54858398 263.66186523 C104.07417917 259.3982621 104.17977033 255.22870042 104.203125 250.9375 C104.21022995 250.07746872 104.2173349 249.21743744 104.22465515 248.3313446 C104.68306849 176.43408771 80.63934296 111.37846611 29.86157227 59.69384766 C23.67829877 53.45590271 17.49546243 47.48257091 10.57421875 42.06640625 C6.6144748 38.8877954 2.93233873 35.42490028 -0.78515625 31.96875 C-2.83679121 29.97328212 -2.83679121 29.97328212 -5 29 C-4.37606823 24.29051498 -3.54250947 19.6964546 -2.5 15.0625 C-1.40086221 10.03863605 -0.51148866 5.11488663 0 0 Z " fill="#253970" transform="translate(654,320)"/>
<path d="M0 0 C11.92590439 9.66583452 21.48813656 23.70029537 24.02734375 39.08203125 C25.07169808 49.43854506 24.59791078 58.97640025 21.30859375 68.87109375 C20.83292969 70.33289063 20.83292969 70.33289063 20.34765625 71.82421875 C14.35388531 88.06266201 2.50562282 99.26690629 -12.9296875 106.64453125 C-27.71775661 113.21235826 -44.29263253 114.1160094 -59.69140625 108.87109375 C-69.16453204 105.04241531 -76.58313845 100.18391602 -83.69140625 92.87109375 C-84.325625 92.2575 -84.95984375 91.64390625 -85.61328125 91.01171875 C-98.61165938 77.55322104 -101.22086588 59.93623947 -100.96875 42.0546875 C-100.74186456 35.77752368 -99.3911566 30.5414158 -96.69140625 24.87109375 C-96.29050781 23.96617187 -95.88960937 23.06125 -95.4765625 22.12890625 C-87.81683158 6.45421051 -74.31264158 -4.16625757 -58.19140625 -10.12890625 C-38.2285364 -16.84538583 -16.78549878 -12.48841109 0 0 Z " fill="#E9F2F5" transform="translate(613.69140625,431.12890625)"/>
<path d="M0 0 C0.92941406 -0.00773437 1.85882812 -0.01546875 2.81640625 -0.0234375 C23.18521064 0.03337925 41.32152566 8.32849857 55.875 22.375 C69.22021993 35.84198647 76.8833267 54.43434005 77.5 73.3125 C77.18663607 93.99451938 68.80006837 113.774927 54.6953125 128.8359375 C40.09454742 142.54911808 20.75376097 150.20107924 0.75 150.625 C-20.46793873 149.71017928 -40.57514036 141.59258131 -55.1328125 125.80078125 C-62.36253718 117.04539224 -67.38535177 108.04738218 -70.875 97.25 C-83.65570835 96.81108591 -83.65570835 96.81108591 -95.875 100.25 C-95.82859375 101.0028125 -95.7821875 101.755625 -95.734375 102.53125 C-95.04073295 122.94414462 -103.02860138 141.35094954 -116.80078125 156.1875 C-130.17902347 169.88037633 -149.47060316 178.02044775 -168.58227539 178.54296875 C-187.89191343 178.72211418 -206.01477188 172.85867841 -220.875 160.25 C-221.66777344 159.65445313 -222.46054687 159.05890625 -223.27734375 158.4453125 C-236.70058643 147.10115853 -244.5082442 129.33180274 -246.875 112.25 C-248.32444229 91.92802482 -244.37843793 73.59579634 -231.4375 57.375 C-229.9367431 55.64900303 -228.41687876 53.93936281 -226.875 52.25 C-226.22660156 51.52039063 -225.57820313 50.79078125 -224.91015625 50.0390625 C-213.16843238 37.50495236 -195.06813984 28.64768813 -177.875 28.00390625 C-157.52255091 27.59257947 -140.00521675 31.16996052 -123.875 44.25 C-123.04613281 44.90484375 -122.21726562 45.5596875 -121.36328125 46.234375 C-109.31502784 56.34531354 -98.84609264 72.3087883 -96.875 88.25 C-95.864375 87.755 -94.85375 87.26 -93.8125 86.75 C-87.47403421 84.30860178 -80.55169128 85.01527257 -73.875 85.25 C-73.89856567 84.35244995 -73.89856567 84.35244995 -73.92260742 83.43676758 C-74.48323328 58.80471228 -69.7556315 40.07360815 -52.34765625 21.5625 C-42.84888186 12.41243245 -31.54580634 5.95942446 -18.875 2.25 C-17.67359375 1.89164062 -16.4721875 1.53328125 -15.234375 1.1640625 C-10.17178208 -0.07335455 -5.18683991 -0.04280748 0 0 Z M-42.875 30.25 C-43.57109375 30.89195312 -44.2671875 31.53390625 -44.984375 32.1953125 C-55.53502969 42.95043724 -61.2531998 57.68064008 -61.125 72.5625 C-61.13273438 73.44873047 -61.14046875 74.33496094 -61.1484375 75.24804688 C-61.09654274 93.03497518 -54.29348541 107.5748905 -42.1875 120.4375 C-29.0563845 133.09184278 -12.86232451 137.73771391 5.015625 137.46875 C10.6390158 137.26066893 15.79585363 136.01623137 21.125 134.25 C21.98609375 133.9715625 22.8471875 133.693125 23.734375 133.40625 C30.29267575 131.04363234 35.6152754 127.47100935 41.125 123.25 C41.74117187 122.81171875 42.35734375 122.3734375 42.9921875 121.921875 C54.24873393 113.31087635 60.89452137 98.80397204 63.765625 85.21875 C65.87225799 67.81612965 62.38284432 51.63720691 51.84082031 37.53173828 C40.63191535 23.6335173 25.81018832 15.0981764 8.125 12.25 C-11.2278563 10.63171992 -28.64916908 17.0687231 -42.875 30.25 Z M-216.875 60.25 C-217.49890625 60.84039062 -218.1228125 61.43078125 -218.765625 62.0390625 C-222.89131807 66.25767658 -225.53873078 71.03100134 -228.1875 76.25 C-228.52539551 76.91459229 -228.86329102 77.57918457 -229.21142578 78.26391602 C-235.50442344 91.22430486 -236.66281402 108.35493063 -232.02929688 122.06665039 C-229.38532734 128.83809492 -226.06687794 135.30596144 -221.875 141.25 C-221.44960938 141.8584375 -221.02421875 142.466875 -220.5859375 143.09375 C-213.61643742 152.06035829 -203.3926147 158.33468358 -192.875 162.25 C-192.08480469 162.56839844 -191.29460937 162.88679688 -190.48046875 163.21484375 C-176.4032301 168.02549066 -158.36955676 166.75831905 -145.04296875 160.37207031 C-129.88165398 152.67370086 -119.46205964 142.33147781 -112.875 126.5 C-112.58431641 125.80350342 -112.29363281 125.10700684 -111.99414062 124.3894043 C-106.69610012 110.85085829 -106.9509041 92.74583382 -112.64111328 79.46142578 C-120.50934064 62.17982398 -132.75192335 50.6185376 -150.359375 43.47265625 C-155.50742008 41.68228057 -160.45301214 40.71515714 -165.875 40.25 C-166.81601562 40.1675 -167.75703125 40.085 -168.7265625 40 C-187.39008518 39.19510414 -203.93221789 47.16952872 -216.875 60.25 Z " fill="#1F274B" transform="translate(573.875,405.75)"/>
<path d="M0 0 C0.495 0.99 0.495 0.99 1 2 C1.66 2 2.32 2 3 2 C3.81529181 6.1869614 4.62673418 10.37466003 5.4375 14.5625 C5.66759766 15.74392578 5.89769531 16.92535156 6.13476562 18.14257812 C6.46831055 19.86831055 6.46831055 19.86831055 6.80859375 21.62890625 C7.11494751 23.2078064 7.11494751 23.2078064 7.42749023 24.81860352 C8.70959974 31.94319583 9.15988915 38.72186046 9.16796875 45.9453125 C9.17296135 47.51561722 9.17296135 47.51561722 9.17805481 49.11764526 C9.18310264 51.32810021 9.1854638 53.53856273 9.18530273 55.74902344 C9.18747932 59.09323036 9.20563094 62.43710176 9.22460938 65.78125 C9.2535324 76.39510732 9.17466871 86.5783816 7 97 C6.62851376 99.05852296 6.25742662 101.11711798 5.88671875 103.17578125 C1.06398864 128.24713709 -6.97452259 151.44229379 -19 174 C-19.34643555 174.6595166 -19.69287109 175.3190332 -20.04980469 175.99853516 C-27.5223819 190.1472072 -36.86446817 202.65730365 -47 215 C-47.99 214.67 -48.98 214.34 -50 214 C-51.09776937 211.72143669 -51.97945658 209.56346751 -52.8125 207.1875 C-53.19498901 206.12366089 -53.19498901 206.12366089 -53.58520508 205.03833008 C-54.41184793 202.69908515 -55.21059598 200.35206301 -56 198 C-56.4017041 196.80697266 -56.4017041 196.80697266 -56.81152344 195.58984375 C-66.3490638 166.78069154 -68.81030659 134.7756386 -62 105 C-61.73316406 103.70835937 -61.46632813 102.41671875 -61.19140625 101.0859375 C-54.0684651 69.49173629 -38.51689996 41.0444876 -17 17 C-16.2059375 16.08476563 -15.411875 15.16953125 -14.59375 14.2265625 C-10.05561332 9.05122169 -5.31583588 4.37433906 0 0 Z " fill="#2D5C7F" transform="translate(738,499)"/>
<path d="M0 0 C0.99 0.33 1.98 0.66 3 1 C4.17235885 3.67285885 5.15204748 6.23876776 6.0625 9 C6.32635498 9.77730469 6.59020996 10.55460937 6.86206055 11.35546875 C14.7678743 35.03572369 15.02945336 63.27705354 4.40234375 86.2109375 C3.93957031 87.13132812 3.47679687 88.05171875 3 89 C2.48566406 90.06476563 1.97132813 91.12953125 1.44140625 92.2265625 C-2.4973807 99.99497833 -7.17988583 106.53650586 -13 113 C-14.01320313 114.15435547 -14.01320313 114.15435547 -15.046875 115.33203125 C-31.68681214 133.1918134 -56.82883829 143.25880041 -80.93359375 144.4453125 C-107.45596919 145.14817697 -127.5395819 138.51134526 -150 125 C-150.53109375 126.01320313 -151.0621875 127.02640625 -151.609375 128.0703125 C-152.32274694 129.42196459 -153.03629817 130.77352207 -153.75 132.125 C-154.09804688 132.79015625 -154.44609375 133.4553125 -154.8046875 134.140625 C-156.9905431 138.26946336 -159.3423394 142.15716643 -162 146 C-169.66199095 144.5284918 -175.54987489 137.70861382 -181.01953125 132.5390625 C-182.97677177 130.69319145 -182.97677177 130.69319145 -186 131 C-187.50398719 132.59293452 -187.50398719 132.59293452 -188.9375 134.75 C-196.1613546 144.41228654 -204.76834284 152.59279721 -215 159 C-215.77601563 159.50917969 -216.55203125 160.01835938 -217.3515625 160.54296875 C-240.12886177 174.97353783 -267.67868397 179.4819034 -293.97265625 173.96875 C-309.4665581 170.39181297 -322.86333279 163.17264222 -335 153 C-336.03125 152.195625 -337.0625 151.39125 -338.125 150.5625 C-357.09800052 133.65178215 -368.52808836 107.18261383 -370.27270508 82.07543945 C-370.36387739 78.15011517 -370.36120945 74.23848195 -370.3125 70.3125 C-370.31572266 69.00216797 -370.31894531 67.69183594 -370.32226562 66.34179688 C-370.27853976 58.37176475 -369.59641097 50.81026021 -368 43 C-367.67 43 -367.34 43 -367 43 C-366.91363281 44.28648437 -366.82726562 45.57296875 -366.73828125 46.8984375 C-365.14982467 68.19774203 -362.29679707 89.56798022 -353 109 C-352.67016113 109.69270996 -352.34032227 110.38541992 -352.00048828 111.09912109 C-341.60067178 132.34834236 -323.56672504 148.09237972 -301.3671875 156.3515625 C-291.37894485 159.5141268 -282.24810645 160.20806888 -271.8125 160.25 C-270.54857422 160.270625 -269.28464844 160.29125 -267.98242188 160.3125 C-260.13846278 160.34496336 -253.41969886 159.54235671 -246 157 C-245.29367432 156.77022461 -244.58734863 156.54044922 -243.85961914 156.30371094 C-221.45453006 148.78830746 -203.79837839 136.20599655 -189.30859375 117.6484375 C-187.67884017 115.064396 -187.67884017 115.064396 -188.65625 112.30859375 C-189.96346543 109.88591366 -189.96346543 109.88591366 -192.0625 107.6875 C-194.0466952 104.93522924 -195.14719127 102.71151352 -195.41015625 99.29296875 C-194.46053195 93.9841167 -190.38881505 89.99665013 -187 86 C-186.5762207 85.47809082 -186.15244141 84.95618164 -185.71582031 84.41845703 C-180.05544462 77.45233075 -180.05544462 77.45233075 -177 75 C-167.51053094 75.13686734 -156.513758 83.486242 -150 90 C-149.2126339 95.68524643 -150.42786565 100.54993426 -152 106 C-152.22032737 108.4932625 -152.22032737 108.4932625 -151 111 C-148.54404369 113.03177112 -145.81526638 114.46101833 -143 115.9375 C-142.19272461 116.370625 -141.38544922 116.80375 -140.55371094 117.25 C-115.02777977 130.57479461 -84.81314779 133.1177157 -57.05859375 125.15625 C-54.60461584 124.24240911 -52.33106426 123.19228205 -50 122 C-48.44925781 121.24203125 -48.44925781 121.24203125 -46.8671875 120.46875 C-39.52565091 116.72132993 -33.14138299 112.49123658 -27 107 C-26.16726563 106.26136719 -25.33453125 105.52273438 -24.4765625 104.76171875 C-6.8816717 88.2225214 2.27491167 64.85773152 3.34375 40.98828125 C3.60323506 30.2396444 2.94615838 19.96845428 0.65625 9.4609375 C0.03936617 6.2076097 -0.12184837 3.30005996 0 0 Z " fill="#37709C" transform="translate(669,444)"/>
<path d="M0 0 C0.99 0.33 1.98 0.66 3 1 C3 1.66 3 2.32 3 3 C3.763125 3.20625 4.52625 3.4125 5.3125 3.625 C10.49898594 5.55894391 15.19033084 8.2785146 20 11 C20 11.66 20 12.32 20 13 C21.65 13.66 23.3 14.32 25 15 C25 15.66 25 16.32 25 17 C26.32 17.33 27.64 17.66 29 18 C29 18.66 29 19.32 29 20 C29.58136719 20.26296875 30.16273438 20.5259375 30.76171875 20.796875 C33.11003822 22.05914794 34.83797845 23.46448561 36.8125 25.25 C39.42177127 27.59202747 42.05227484 29.88559804 44.75 32.125 C47.55046696 34.51363358 49.75124327 37.07661625 52 40 C52.9075 40.886875 53.815 41.77375 54.75 42.6875 C57 45 57 45 57 47 C57.99 47.33 58.98 47.66 60 48 C60.33333333 49.33333333 60.66666667 50.66666667 61 52 C61.99 52.33 62.98 52.66 64 53 C65.38671875 54.77734375 65.38671875 54.77734375 66.6875 56.9375 C67.12449219 57.64777344 67.56148438 58.35804688 68.01171875 59.08984375 C69 61 69 61 69 63 C69.66 63 70.32 63 71 63 C89.79873979 95.22006228 102.29726327 128.77841422 102.0625 166.5 C102.05747533 167.90885258 102.05291413 169.31770689 102.04882812 170.7265625 C102.0371003 174.15108638 102.02068691 177.57552047 102 181 C93.08742322 179.10118204 84.80950467 170.12569924 78.28515625 164.09765625 C76.2958858 162.27160799 74.261485 160.5400992 72.1875 158.8125 C50.68697214 139.94557094 33.88064694 114.85026991 22 89 C21.69755371 88.34435059 21.39510742 87.68870117 21.08349609 87.01318359 C18.96388648 82.37943437 16.95189991 77.70663485 15 73 C14.73445313 72.36658691 14.46890625 71.73317383 14.1953125 71.08056641 C5.11493985 49.16068169 -0.38320407 23.75865211 0 0 Z " fill="#27497B" transform="translate(263,572)"/>
<path d="M0 0 C11.5637223 6.43013043 18.26982343 15.19618903 22.453125 27.74609375 C23.87414437 41.70266244 22.1998942 53.78306191 13.109375 64.9375 C7.59737275 70.95650245 2.14505565 74.95743848 -5.546875 77.74609375 C-6.47113281 78.101875 -7.39539063 78.45765625 -8.34765625 78.82421875 C-19.34226695 81.99238496 -30.6060082 80.03094218 -40.546875 74.74609375 C-50.52457308 68.60714363 -57.10905977 59.9097518 -60.546875 48.74609375 C-63.23390667 37.42088645 -61.62603258 26.14021231 -56.00390625 15.94921875 C-43.4648379 -2.98850461 -20.62608857 -10.15486876 0 0 Z " fill="#1D254A" transform="translate(431.546875,470.25390625)"/>
<path d="M0 0 C9.3829995 6.88660514 14.54611557 15.38834672 18.1875 26.3125 C18.86692446 40.5172113 17.73727974 52.62084966 7.9921875 63.83984375 C-2.72814223 74.19823308 -14.71330614 76.8099578 -29.0546875 76.58984375 C-38.28525522 76.22789601 -44.95113914 72.24471824 -51.8125 66.3125 C-52.43125 65.78785156 -53.05 65.26320313 -53.6875 64.72265625 C-62.27239868 56.85933311 -65.67647781 46.45334947 -66.1875 35.0625 C-65.90137666 23.02848909 -61.11384006 12.87902671 -52.86328125 4.28125 C-38.15473791 -9.35810649 -17.01704191 -10.46081857 0 0 Z " fill="#1E254A" transform="translate(587.8125,447.6875)"/>
<path d="M0 0 C5.56996818 2.49774358 9.62709839 6.84031942 14 11 C14.99652588 11.94552734 14.99652588 11.94552734 16.01318359 12.91015625 C26.78544338 23.20840773 36.41460487 33.81475853 45 46 C45.43715332 46.61375488 45.87430664 47.22750977 46.32470703 47.85986328 C66.2437904 76.03081088 80.18000962 107.21460402 87.875 140.8125 C88.16133301 142.05040283 88.44766602 143.28830566 88.74267578 144.5637207 C92.34126167 160.98673188 93.43827483 177.34234719 93.4375 194.125 C93.44009827 195.48031326 93.44009827 195.48031326 93.44274902 196.86300659 C93.42819975 214.31007953 91.53096962 230.92675377 88 248 C87.80825195 248.93666504 87.61650391 249.87333008 87.41894531 250.83837891 C86.42006492 255.60080044 85.28402464 260.30493599 84 265 C83.74476563 265.95003906 83.48953125 266.90007812 83.2265625 267.87890625 C81.55744748 273.75670377 79.29774568 279.34531902 77 285 C76.67306152 285.80977295 76.34612305 286.6195459 76.00927734 287.45385742 C68.076309 306.95097132 58.46878585 325.02113085 46 342 C45.35200439 342.88341064 45.35200439 342.88341064 44.69091797 343.78466797 C39.18852308 351.22614101 33.28258834 358.20191724 27 365 C26.17371094 365.92941406 25.34742188 366.85882812 24.49609375 367.81640625 C19.60694024 373.30270828 14.63839687 378.29969018 9 383 C8.06800781 383.81984375 7.13601563 384.6396875 6.17578125 385.484375 C0.20009866 390.71896037 -5.97306726 395.63041231 -12.4375 400.25 C-13.43040039 400.98524902 -13.43040039 400.98524902 -14.44335938 401.73535156 C-17.61929595 403.94756675 -19.21267053 405.02621196 -23.16796875 404.89453125 C-24.10253906 404.59933594 -25.03710938 404.30414062 -26 404 C-27.26457031 403.62681641 -27.26457031 403.62681641 -28.5546875 403.24609375 C-29.32039062 402.97925781 -30.08609375 402.71242188 -30.875 402.4375 C-32.04675781 402.03337891 -32.04675781 402.03337891 -33.2421875 401.62109375 C-34.11230469 401.31365234 -34.11230469 401.31365234 -35 401 C-31.3756081 397.1221062 -27.54752473 394.21956043 -23.0625 391.375 C-0.13631193 376.40210681 20.00182534 357.23332755 36 335 C36.39896484 334.44683105 36.79792969 333.89366211 37.20898438 333.32373047 C48.95291374 316.83778776 58.15879864 299.00593476 65.20727539 280.05834961 C65.92125024 278.20447773 66.72134711 276.38432968 67.53125 274.5703125 C69.38343392 270.06792924 70.67534536 265.50939094 71.9375 260.8125 C72.3255481 259.37632324 72.3255481 259.37632324 72.72143555 257.91113281 C74.44689915 251.39497656 75.97890601 244.85732333 77.3125 238.25 C77.55117798 237.07401245 77.55117798 237.07401245 77.79467773 235.87426758 C79.56066499 226.7333154 80.16575032 217.6219853 80.2734375 208.32421875 C80.28592026 207.32869492 80.29840302 206.33317108 80.31126404 205.30747986 C80.53386304 183.30226884 80.21698185 162.48233922 75 141 C74.80245117 140.13004395 74.60490234 139.26008789 74.40136719 138.36376953 C73.14431801 132.83948345 71.65246566 127.41817021 70 122 C69.72849121 121.09540039 69.45698242 120.19080078 69.17724609 119.25878906 C64.39524342 103.53706408 58.22986739 88.74439506 51 74 C50.56848633 73.10716309 50.13697266 72.21432617 49.69238281 71.29443359 C40.56978561 52.55094606 29.2139751 35.11561355 16 19 C15.1638684 17.95562317 14.32895339 16.91026923 13.49609375 15.86328125 C9.6195243 11.05986597 5.69753678 6.49108928 1.21484375 2.2421875 C0 1 0 1 0 0 Z " fill="#F5F7F7" transform="translate(666,364)"/>
<path d="M0 0 C1.24125506 3.58164894 0.74969023 6.06381651 -0.109375 9.71484375 C-0.36831543 10.86049805 -0.62725586 12.00615234 -0.89404297 13.18652344 C-1.17650879 14.4243457 -1.45897461 15.66216797 -1.75 16.9375 C-8.99103693 50.15002891 -10.0967357 84.27208005 -6 118 C-5.89284668 118.89605957 -5.78569336 119.79211914 -5.67529297 120.71533203 C-1.91537262 151.27084192 6.25475505 180.84630469 21 208 C21.33966797 208.64308105 21.67933594 209.28616211 22.02929688 209.94873047 C30.50378892 225.9863516 40.95387035 240.46438856 53 254 C53.44698242 254.50869629 53.89396484 255.01739258 54.35449219 255.54150391 C78.50492597 282.96937237 110.66288631 305.2989601 145 318 C145 318.66 145 319.32 145 320 C143.37892624 321.09990612 141.72641428 322.15354503 140.0625 323.1875 C139.14597656 323.77917969 138.22945312 324.37085938 137.28515625 324.98046875 C130.39624008 327.11840825 123.57887481 322.47430373 117.50366211 319.33349609 C116.63620361 318.87281738 115.76874512 318.41213867 114.875 317.9375 C113.95920166 317.45361816 113.04340332 316.96973633 112.09985352 316.47119141 C90.69501776 304.97964222 71.63180369 289.61648915 54 273 C53.2678125 272.31035156 52.535625 271.62070312 51.78125 270.91015625 C46.88466497 266.15930291 42.54238515 261.03309894 38.32177734 255.67675781 C37.38874245 254.49314429 36.45112233 253.31313833 35.51025391 252.13574219 C27.09723828 241.58382428 19.6893657 230.71962751 13 219 C12.58153809 218.27683594 12.16307617 217.55367187 11.73193359 216.80859375 C-19.81832476 161.75874772 -27.41868184 93.19550605 -11.42578125 32.02734375 C-5.31213463 9.89988726 -5.31213463 9.89988726 0 0 Z " fill="#F5F6F6" transform="translate(270,463)"/>
<path d="M0 0 C0 4.29 0 8.58 0 13 C-13.56844447 17.28984568 -27.04234037 21.20846807 -41 24 C-41.92941406 24.20238281 -42.85882812 24.40476562 -43.81640625 24.61328125 C-73.29360247 30.65633713 -105.79351623 30.06090816 -135 23 C-135.33 19.04 -135.66 15.08 -136 11 C-127.05584281 11.8131052 -127.05584281 11.8131052 -123.25805664 12.48535156 C-112.2119712 14.41506262 -101.17471142 14.37220333 -89.99047852 14.37060547 C-86.6005522 14.37495122 -83.21196054 14.41129554 -79.82226562 14.44921875 C-54.03673957 14.58189438 -29.05816161 9.4782023 -4.7734375 0.91796875 C-2 0 -2 0 0 0 Z " fill="#F5F6F8" transform="translate(592,783)"/>
<path d="M0 0 C2.37590142 3.70416126 2.20500286 6.92984573 2.125 11.25 C2.10695313 12.51328125 2.08890625 13.7765625 2.0703125 15.078125 C2.04710937 16.04234375 2.02390625 17.0065625 2 18 C2.66 18.33 3.32 18.66 4 19 C3.33355469 19.35191406 2.66710937 19.70382812 1.98046875 20.06640625 C-10.10035342 26.53767183 -20.18802804 33.58864199 -30.1328125 43.0234375 C-38.50931819 50.34901628 -49.18157504 51.5595737 -60 51 C-58.39250543 46.99553127 -55.5867224 44.28211641 -52.5625 41.3125 C-52.02681396 40.78285645 -51.49112793 40.25321289 -50.93920898 39.70751953 C-45.89621767 34.78705709 -40.55021847 30.33827925 -35 26 C-34.06285156 25.23429687 -33.12570312 24.46859375 -32.16015625 23.6796875 C-24.48025875 17.53181589 -16.36802485 12.37739409 -7.89501953 7.37792969 C-6.57800049 6.58950684 -6.57800049 6.58950684 -5.234375 5.78515625 C-4.44256836 5.31988525 -3.65076172 4.85461426 -2.83496094 4.37524414 C-0.69911306 3.04648928 -0.69911306 3.04648928 0 0 Z " fill="#213667" transform="translate(364,312)"/>
<path d="M0 0 C18.75113616 3.86786744 36.47229151 9.26928304 54 17 C49.77055693 20.43248719 45.46508867 21.69478642 40.3125 23.25 C39.45205078 23.53101563 38.59160156 23.81203125 37.70507812 24.1015625 C28.39542567 26.93585006 21.30507494 25.36520847 12.3125 22.25 C5.07301505 19.85551307 -2.18867437 17.87462229 -9.625 16.1875 C-10.52436279 15.98092773 -11.42372559 15.77435547 -12.3503418 15.56152344 C-17.89166596 14.33549838 -23.34951139 13.53295684 -29 13 C-29 12.67 -29 12.34 -29 12 C-18.23075524 10.06084339 -7.90553195 9.77743812 3 10 C1.515 5.05 1.515 5.05 0 0 Z " fill="#264077" transform="translate(563,283)"/>
<path d="M0 0 C0.25652344 0.70382812 0.51304687 1.40765625 0.77734375 2.1328125 C3.15915394 8.2757977 5.93463432 13.85524727 9.5 19.375 C9.86730225 19.94492676 10.23460449 20.51485352 10.61303711 21.10205078 C14.2228643 26.55863655 18.28468844 31.45932961 23 36 C20.03 35.505 20.03 35.505 17 35 C17 37.97 17 40.94 17 44 C16.01 44.495 16.01 44.495 15 45 C15.06960938 44.11957031 15.13921875 43.23914063 15.2109375 42.33203125 C15.75909199 35.12379536 15.75909199 35.12379536 12.5625 29 C10.88925104 27.93340124 10.88925104 27.93340124 9 27 C8.30003906 26.58621094 7.60007812 26.17242188 6.87890625 25.74609375 C4.61583914 24.4321813 2.31878921 23.21236187 0 22 C-0.73089844 21.59136719 -1.46179688 21.18273437 -2.21484375 20.76171875 C-3.25318359 20.19904297 -3.25318359 20.19904297 -4.3125 19.625 C-5.23482422 19.11839844 -5.23482422 19.11839844 -6.17578125 18.6015625 C-8.6392207 17.78920773 -9.61636966 17.94958663 -12 19 C-22.49150359 28.69241139 -22.49150359 28.69241139 -28.27734375 41.12890625 C-28.63505859 42.05509766 -28.63505859 42.05509766 -29 43 C-32.0625 44.25 -32.0625 44.25 -35 45 C-34.60167969 44.06800781 -34.20335937 43.13601563 -33.79296875 42.17578125 C-28.52335436 29.60377339 -25.64974507 17.68945649 -25 4 C-16.99305891 -0.98209668 -9.06833432 -0.40056446 0 0 Z " fill="#C7E0EC" transform="translate(503,502)"/>
<path d="M0 0 C2.21936179 10.29783869 3.83100289 20.53403763 5 31 C-2.39065074 32.407743 -2.39065074 32.407743 -5.1015625 30.59375 C-5.85566406 29.55734375 -5.85566406 29.55734375 -6.625 28.5 C-7.18574219 27.7678125 -7.74648438 27.035625 -8.32421875 26.28125 C-8.87722656 25.5284375 -9.43023437 24.775625 -10 24 C-11.13480734 22.6572699 -12.27982122 21.32306147 -13.4375 20 C-14.283125 19.01 -15.12875 18.02 -16 17 C-15.34 22.61 -14.68 28.22 -14 34 C-17.465 34.495 -17.465 34.495 -21 35 C-22.66920743 27.97985811 -24.25505125 20.94711994 -25.6875 13.875 C-25.93886719 12.63492188 -26.19023437 11.39484375 -26.44921875 10.1171875 C-27 7 -27 7 -27 4 C-22.07027027 2.61621622 -22.07027027 2.61621622 -19 3 C-16.12309363 5.23691661 -14.1603931 8.08879764 -12 11 C-10.70035711 12.5111534 -9.38832999 14.01176914 -8.0625 15.5 C-7.04166667 16.66666667 -6.02083333 17.83333333 -5 19 C-5.2165625 17.67935547 -5.2165625 17.67935547 -5.4375 16.33203125 C-5.623125 15.17058594 -5.80875 14.00914062 -6 12.8125 C-6.185625 11.66394531 -6.37125 10.51539063 -6.5625 9.33203125 C-6.93489477 6.49584607 -7.08596021 3.85280436 -7 1 C-2.25 0 -2.25 0 0 0 Z " fill="#EFEDD9" transform="translate(475,197)"/>
<path d="M0 0 C2.61991834 2.78366324 2.96309965 3.62684521 3.25 7.5 C2.98691388 11.31474872 2.45514714 12.36295947 0 15.125 C-0.23253889 17.43865255 -0.23253889 17.43865255 2.3125 19.5 C3.6428125 20.799375 3.6428125 20.799375 5 22.125 C6.02813611 23.43675986 7.04084432 24.7619893 8 26.125 C3.63306334 28.18716454 3.63306334 28.18716454 1.05078125 27.93359375 C-1.64714035 26.8698418 -2.76309517 25.37928793 -4.5625 23.125 C-7.17062598 19.80837666 -7.17062598 19.80837666 -11 18.125 C-10.690625 18.62 -10.38125 19.115 -10.0625 19.625 C-8.58355618 23.10486781 -8.37597149 26.36528509 -8 30.125 C-11.465 30.62 -11.465 30.62 -15 31.125 C-16.87128653 25.82593626 -18.26157178 20.44578598 -19.625 15 C-19.85445313 14.10667969 -20.08390625 13.21335938 -20.3203125 12.29296875 C-20.536875 11.43058594 -20.7534375 10.56820312 -20.9765625 9.6796875 C-21.17330566 8.90093262 -21.37004883 8.12217773 -21.57275391 7.31982422 C-22 5.125 -22 5.125 -22 1.125 C-15.75008617 -2.48071952 -6.26205192 -3.91378245 0 0 Z " fill="#F3F1DC" transform="translate(442,206.875)"/>
<path d="M0 0 C2.64 0 5.28 0 8 0 C8.33893581 3.83285925 8.67012787 7.66635091 9 11.5 C9.09539063 12.57765625 9.19078125 13.6553125 9.2890625 14.765625 C9.78162326 20.53562244 10.11244203 26.20923553 10 32 C7.66705225 32.04241723 5.33297433 32.04092937 3 32 C2 31 2 31 1.90234375 28.27734375 C1.93489583 25.18489583 1.96744792 22.09244792 2 19 C-1.96 19 -5.92 19 -10 19 C-9.67 20.65 -9.34 22.3 -9 24 C-8.93628632 25.60303627 -8.91355786 27.20837672 -8.9375 28.8125 C-8.94652344 29.60269531 -8.95554687 30.39289063 -8.96484375 31.20703125 C-8.97644531 31.79871094 -8.98804688 32.39039063 -9 33 C-11.31 33 -13.62 33 -16 33 C-16.34153092 29.70913156 -16.67166646 26.41720923 -17 23.125 C-17.09539062 22.2071875 -17.19078125 21.289375 -17.2890625 20.34375 C-17.89410312 14.20690947 -18.12065893 8.16533625 -18 2 C-15.69 2 -13.38 2 -11 2 C-10.67 5.63 -10.34 9.26 -10 13 C-6.37 13 -2.74 13 1 13 C0.505 6.565 0.505 6.565 0 0 Z " fill="#EDEBD8" transform="translate(527,190)"/>
<path d="M0 0 C2.04296875 2.08984375 2.04296875 2.08984375 4.1875 4.9375 C8.92517176 11.00641837 14.10873191 16.40273884 19.7578125 21.625 C21 23 21 23 21 25 C16.61569689 27.07036536 16.61569689 27.07036536 13.8125 26.75 C12 26 12 26 10 24 C7.64934822 24.28566879 7.64934822 24.28566879 5 25 C3.00102872 25.33944795 1.00124361 25.67421616 -1 26 C-1 28.64 -1 31.28 -1 34 C-3.31 34.66 -5.62 35.32 -8 36 C-8 24.78 -8 13.56 -8 2 C-4 0 -4 0 0 0 Z " fill="#F0EDDA" transform="translate(339,235)"/>
<path d="M0 0 C2.536875 -0.061875 5.07375 -0.12375 7.6875 -0.1875 C8.47729248 -0.21481201 9.26708496 -0.24212402 10.08081055 -0.27026367 C14.61476924 -0.32357739 17.43712454 0.16424198 21 3 C23.4915904 6.7373856 23.45793285 8.57331583 23 13 C20.63493798 16.94177003 18.44799297 18.83504946 14 20 C10.6875 20.125 10.6875 20.125 8 20 C8 23.63 8 27.26 8 31 C5.36 31 2.72 31 0 31 C0 20.77 0 10.54 0 0 Z " fill="#EEEBDC" transform="translate(554,189)"/>
<path d="M0 0 C3.2186267 2.1213676 4.36898801 3.20652425 5.75 6.8125 C6.37560814 10.96931851 6.72780054 14.94681162 4.73046875 18.7578125 C2.10012217 22.04773239 -0.12046574 23.5285621 -4.30078125 24.0859375 C-8.56853138 24.27758086 -11.3659053 24.22343753 -14.75 21.4375 C-18.77748841 17.20863716 -18.58714142 14.18943545 -18.53515625 8.515625 C-18.15033774 4.86775636 -17.01015463 3.18929982 -14.25 0.8125 C-9.84994254 -2.3737485 -4.89856324 -1.78985965 0 0 Z " fill="#F7F8F8" transform="translate(400.25,486.1875)"/>
<path d="M0 0 C3.8026029 2.0050088 5.61790841 3.42686262 8 7 C8.58760427 11.50242236 8.50290275 15.68686505 6.875 19.9375 C3.55114421 23.59374137 0.35927659 24.83009043 -4.5 25.4375 C-8.70552222 24.91180972 -10.76772984 23.70608664 -14 21 C-16.74928862 16.59926156 -16.67718432 12.03400871 -16 7 C-11.99730813 0.37485483 -7.34089229 -1.03975096 0 0 Z " fill="#F8F8F8" transform="translate(551,459)"/>
<path d="M0 0 C2.7132114 1.37788579 3.93248622 2.66044494 6 5 C6 5.99 6 6.98 6 8 C3.36 8.33 0.72 8.66 -2 9 C-2.33 8.34 -2.66 7.68 -3 7 C-4.65 7 -6.3 7 -8 7 C-8 8.32 -8 9.64 -8 11 C-7.26394531 11.15855469 -6.52789062 11.31710938 -5.76953125 11.48046875 C4.69268327 13.98200221 4.69268327 13.98200221 8 19 C8.625 22.5 8.625 22.5 8 26 C5.01564523 29.7102789 2.73900607 31.63479919 -2.05078125 32.2734375 C-6.23981629 32.46154615 -9.12453627 32.41440962 -12.5 29.75 C-15 27 -15 27 -16 23 C-13.03 23 -10.06 23 -7 23 C-6.67 23.66 -6.34 24.32 -6 25 C-4.35 25 -2.7 25 -1 25 C-0.67 23.68 -0.34 22.36 0 21 C-0.73605469 20.82984375 -1.47210938 20.6596875 -2.23046875 20.484375 C-12.77956691 17.86451971 -12.77956691 17.86451971 -16 14 C-17.125 10.625 -17.125 10.625 -17 7 C-12.95666443 -0.10358564 -7.64197489 -1.0633329 0 0 Z " fill="#EDEAD7" transform="translate(498,194)"/>
<path d="M0 0 C0.33 1.98 0.66 3.96 1 6 C-2.96 6.99 -6.92 7.98 -11 9 C-10.67 10.98 -10.34 12.96 -10 15 C-8.046875 14.47916667 -6.09375 13.95833333 -4.140625 13.4375 C-2 13 -2 13 2 13 C2 14.98 2 16.96 2 19 C-1.61973402 20.31626692 -4.09567131 21 -8 21 C-7.34 22.98 -6.68 24.96 -6 27 C-2.04 26.34 1.92 25.68 6 25 C6.33 26.98 6.66 28.96 7 31 C4.2092793 31.83661862 1.41751988 32.66942737 -1.375 33.5 C-2.1690625 33.73847656 -2.963125 33.97695312 -3.78125 34.22265625 C-4.54179687 34.44824219 -5.30234375 34.67382812 -6.0859375 34.90625 C-7.1385376 35.22045898 -7.1385376 35.22045898 -8.21240234 35.54101562 C-10 36 -10 36 -12 36 C-16.786446 19.86229867 -16.786446 19.86229867 -18.8125 12.625 C-19.04582031 11.79226562 -19.27914063 10.95953125 -19.51953125 10.1015625 C-20 8 -20 8 -20 5 C-17.23058394 4.16169027 -14.45964931 3.32917966 -11.6875 2.5 C-10.50897461 2.14228516 -10.50897461 2.14228516 -9.30664062 1.77734375 C-8.54931641 1.55175781 -7.79199219 1.32617188 -7.01171875 1.09375 C-6.31522217 0.88427734 -5.61872559 0.67480469 -4.90112305 0.45898438 C-3 0 -3 0 0 0 Z " fill="#ECE9D5" transform="translate(416,209)"/>
<path d="M0 0 C0 1.65 0 3.3 0 5 C-1.98 5.66 -3.96 6.32 -6 7 C-5.10851737 12.23617959 -3.39275397 17.17568567 -1.72851562 22.20507812 C-0.61085235 25.67537371 0 28.31557568 0 32 C-3.465 32.495 -3.465 32.495 -7 33 C-10.10614365 25.13215391 -12.2635002 17.27468466 -14 9 C-14.76699219 9.33773437 -15.53398437 9.67546875 -16.32421875 10.0234375 C-19.38347294 11.13995363 -20.91819676 10.88051521 -24 10 C-24 8.35 -24 6.7 -24 5 C-22.87980469 4.65066406 -21.75960938 4.30132812 -20.60546875 3.94140625 C-19.13280778 3.48178595 -17.66015179 3.0221497 -16.1875 2.5625 C-15.44951172 2.33240234 -14.71152344 2.10230469 -13.95117188 1.86523438 C-4.48377814 -1.09064874 -4.48377814 -1.09064874 0 0 Z " fill="#EFECDB" transform="translate(393,217)"/>
<path d="M0 0 C2.35933547 4.41786665 3.4580732 8.98235881 4.6875 13.8125 C4.92533203 14.68970703 5.16316406 15.56691406 5.40820312 16.47070312 C6.90256367 22.32982351 7.81719707 27.36560586 5 33 C3.68 32.67 2.36 32.34 1 32 C1.99 32 2.98 32 4 32 C3.67 30.02 3.34 28.04 3 26 C2.09507812 26.34224609 2.09507812 26.34224609 1.171875 26.69140625 C0.37265625 26.97886719 -0.4265625 27.26632813 -1.25 27.5625 C-2.03890625 27.85253906 -2.8278125 28.14257812 -3.640625 28.44140625 C-6.19103452 29.04522837 -7.55322229 28.8473932 -10 28 C-10.33 26.02 -10.66 24.04 -11 22 C-7.38026598 20.68373308 -4.90432869 20 -1 20 C-1 18.02 -1 16.04 -1 14 C-2.2375 14.33 -3.475 14.66 -4.75 15 C-7.74591845 15.79891159 -9.80107719 16 -13 16 C-13.33 14.02 -13.66 12.04 -14 10 C-9.05 8.515 -9.05 8.515 -4 7 C-3.67 5.35 -3.34 3.7 -3 2 C-2.01 1.34 -1.02 0.68 0 0 Z " fill="#2B2E50" transform="translate(419,208)"/>
<path d="M0 0 C1.09667969 1.91772461 1.09667969 1.91772461 1.921875 4.40234375 C2.22480469 5.29244141 2.52773438 6.18253906 2.83984375 7.09960938 C3.14019531 8.03611328 3.44054687 8.97261719 3.75 9.9375 C4.22373047 11.33645508 4.22373047 11.33645508 4.70703125 12.76367188 C7 19.62768872 7 19.62768872 7 22 C12.445 20.515 12.445 20.515 18 19 C20 22 20 22 20 25 C19.40832031 25.19335938 18.81664062 25.38671875 18.20703125 25.5859375 C13.1472778 27.2508429 13.1472778 27.2508429 8.1875 29.1875 C6 30 6 30 2 30 C0.48990237 25.75351978 -1.00631943 21.50227982 -2.5 17.25 C-2.92925781 16.0434375 -3.35851562 14.836875 -3.80078125 13.59375 C-4.20683594 12.43359375 -4.61289062 11.2734375 -5.03125 10.078125 C-5.59682617 8.47565918 -5.59682617 8.47565918 -6.17382812 6.84082031 C-7 4 -7 4 -7 0 C-3.87933249 -1.0402225 -2.94029771 -1.2744014 0 0 Z " fill="#EDE9D3" transform="translate(360,228)"/>
<path d="M0 0 C2.6184082 0.30419922 2.6184082 0.30419922 4.19580078 1.92480469 C4.84778442 3.03686279 4.84778442 3.03686279 5.51293945 4.17138672 C5.99311523 4.97447266 6.47329102 5.77755859 6.96801758 6.60498047 C7.45077148 7.45447266 7.93352539 8.30396484 8.4309082 9.17919922 C9.18404297 10.44183594 9.18404297 10.44183594 9.95239258 11.72998047 C13.6184082 17.96470092 13.6184082 17.96470092 13.6184082 20.30419922 C11.9684082 20.30419922 10.3184082 20.30419922 8.6184082 20.30419922 C8.2884082 19.31419922 7.9584082 18.32419922 7.6184082 17.30419922 C3.6584082 17.79919922 3.6584082 17.79919922 -0.3815918 18.30419922 C-1.3715918 20.77919922 -1.3715918 20.77919922 -2.3815918 23.30419922 C-3.7015918 23.30419922 -5.0215918 23.30419922 -6.3815918 23.30419922 C-4.71295695 0.60198302 -4.71295695 0.60198302 0 0 Z " fill="#EFF3F4" transform="translate(496.381591796875,532.69580078125)"/>
<path d="M0 0 C2.64 0 5.28 0 8 0 C8.73259082 10.6879768 9.14036598 21.28539694 9 32 C6.69 32 4.38 32 2 32 C1.66002426 28.35475481 1.32925063 24.70872831 1 21.0625 C0.90460937 20.04091797 0.80921875 19.01933594 0.7109375 17.96679688 C0.17253448 11.94822031 -0.10081112 6.04236648 0 0 Z " fill="#E8E8D8" transform="translate(540,189)"/>
<path d="M0 0 C2.375 1.625 2.375 1.625 4 4 C4.45319325 7.17235276 4.52990283 9.06487736 2.9375 11.875 C-0.1069286 13.64273274 -2.5631012 13.36823916 -6 13 C-7.9375 11.9375 -7.9375 11.9375 -9 10 C-9.63316583 4.09045226 -9.63316583 4.09045226 -7.875 1.0625 C-5.06487736 -0.52990283 -3.17235276 -0.45319325 0 0 Z " fill="#F4F5F5" transform="translate(590,493)"/>
<path d="M0 0 C1.875 1.0625 1.875 1.0625 3 3 C3.63316583 8.90954774 3.63316583 8.90954774 1.875 11.9375 C-0.93512264 13.52990283 -2.82764724 13.45319325 -6 13 C-8.4375 11.4375 -8.4375 11.4375 -10 9 C-9.9375 5.375 -9.9375 5.375 -9 2 C-5.53076119 -0.31282587 -4.07794425 -0.42478586 0 0 Z " fill="#F1F2F2" transform="translate(438,519)"/>
<path d="M0 0 C11.60725086 5.17620646 21.20063496 18.09404555 30 27 C29.01 27.99 28.02 28.98 27 30 C23.62079801 28.58527986 21.96524525 27.00192746 19.8125 24.0625 C14.04263024 16.38993228 8.19554441 8.85881534 1.21484375 2.2421875 C0 1 0 1 0 0 Z " fill="#EBF1F2" transform="translate(666,364)"/>
<path d="M0 0 C5.41139241 -0.36075949 5.41139241 -0.36075949 7.9375 1.1875 C9 3 9 3 8.8125 5.625 C8 8 8 8 6 9 C4.00039988 9.039992 1.99952758 9.04346799 0 9 C0 6.03 0 3.06 0 0 Z " fill="#313757" transform="translate(561,194)"/>
<path d="M0 0 C3.0625 0.1875 3.0625 0.1875 5.0625 2.1875 C4.9375 4.6875 4.9375 4.6875 4.0625 7.1875 C1.49939172 8.9816758 0.23130694 9.1875 -2.9375 9.1875 C-4.30373674 6.45502652 -4.065926 4.20551098 -3.9375 1.1875 C-2.9375 0.1875 -2.9375 0.1875 0 0 Z " fill="#2E2F4F" transform="translate(432.9375,210.8125)"/>
<path d="M0 0 C0.66 0 1.32 0 2 0 C2.33 2.31 2.66 4.62 3 7 C2.01 6.34 1.02 5.68 0 5 C-3.63 8.63 -7.26 12.26 -11 16 C-11.66 15.67 -12.32 15.34 -13 15 C-12.39671875 14.41992188 -11.7934375 13.83984375 -11.171875 13.2421875 C-5.92280559 8.21357274 -5.92280559 8.21357274 -1.5625 2.4375 C-1.046875 1.633125 -0.53125 0.82875 0 0 Z " fill="#4CC1B2" transform="translate(648,273)"/>
<path d="M0 0 C1.44145832 4.58550872 0.74555178 8.56898394 -1 13 C-3.625 15.0625 -3.625 15.0625 -6 16 C-4.43551329 10.3856009 -2.83604813 5.13189662 0 0 Z " fill="#D3DBE1" transform="translate(270,463)"/>
<path d="M0 0 C2.97 0.495 2.97 0.495 6 1 C6.625 2.875 6.625 2.875 7 5 C5 7 5 7 2.375 7.125 C1.59125 7.08375 0.8075 7.0425 0 7 C0.66 6.34 1.32 5.68 2 5 C1.34 3.35 0.68 1.7 0 0 Z " fill="#32345A" transform="translate(492,213)"/>
<path d="M0 0 C1.44199023 4.48619183 0.49327865 6.87891217 -1.375 11.125 C-3 14 -3 14 -6 16 C-4.25192871 10.53262809 -2.34205919 5.24175152 0 0 Z " fill="#2F4474" transform="translate(740,654)"/>
<path d="M0 0 C4.875 4.75 4.875 4.75 6 7 C4.02 7.66 2.04 8.32 0 9 C0 6.03 0 3.06 0 0 Z " fill="#2C305C" transform="translate(338,246)"/>
<path d="M0 0 C1.2065625 0.0309375 1.2065625 0.0309375 2.4375 0.0625 C2.7675 1.0525 3.0975 2.0425 3.4375 3.0625 C2.7775 3.0625 2.1175 3.0625 1.4375 3.0625 C1.4375 3.7225 1.4375 4.3825 1.4375 5.0625 C0.1175 5.3925 -1.2025 5.7225 -2.5625 6.0625 C-2.94468767 4.40635343 -3.27645102 2.73792976 -3.5625 1.0625 C-2.5625 0.0625 -2.5625 0.0625 0 0 Z " fill="#2D2F55" transform="translate(492.5625,199.9375)"/>
<path d="M0 0 C0.78246094 0.09023438 1.56492187 0.18046875 2.37109375 0.2734375 C4.5625 0.625 4.5625 0.625 7.5625 1.625 C6.5725 3.11 6.5725 3.11 5.5625 4.625 C4.1233866 4.34140113 2.68624482 4.04778601 1.25 3.75 C0.44949219 3.58757813 -0.35101563 3.42515625 -1.17578125 3.2578125 C-3.4375 2.625 -3.4375 2.625 -6.4375 0.625 C-3.9632021 -0.61214895 -2.72250667 -0.33081362 0 0 Z " fill="#364565" transform="translate(417.4375,822.375)"/>
<path d="M0 0 C3 4 3 4 3.0625 6.125 C2 8 2 8 -1.0625 9.25 C-2.031875 9.4975 -3.00125 9.745 -4 10 C-2.68 6.7 -1.36 3.4 0 0 Z " fill="#B0D0DF" transform="translate(472,537)"/>
<path d="M0 0 C0.66 0 1.32 0 2 0 C0.34908222 4.29238623 -2.73754566 6.8793915 -6 10 C-6.66 9.67 -7.32 9.34 -8 9 C-6.85459775 7.68712379 -5.70866567 6.37470979 -4.5625 5.0625 C-3.92441406 4.33160156 -3.28632813 3.60070312 -2.62890625 2.84765625 C-1.77458541 1.87860647 -0.91348825 0.91348825 0 0 Z " fill="#293154" transform="translate(386,474)"/>
<path d="M0 0 C2.94695474 2.94695474 4.38513421 5.2050654 6 9 C5.67 9.66 5.34 10.32 5 11 C4.01 11 3.02 11 2 11 C1.34 7.37 0.68 3.74 0 0 Z " fill="#43989E" transform="translate(666,434)"/>
<path d="M0 0 C0.66 0 1.32 0 2 0 C3.4606285 2.64738916 4 3.89448334 4 7 C2.68 7 1.36 7 0 7 C0 4.69 0 2.38 0 0 Z " fill="#719EC4" transform="translate(496,540)"/>
<path d="M0 0 C1.65 1.65 3.3 3.3 5 5 C4.67 5.66 4.34 6.32 4 7 C3.34 7 2.68 7 2 7 C1.67 7.66 1.34 8.32 1 9 C0.67 6.03 0.34 3.06 0 0 Z " fill="#3D3C5B" transform="translate(458,213)"/>
<path d="M0 0 C0.33 0 0.66 0 1 0 C1.66 4.62 2.32 9.24 3 14 C1.68 13.01 0.36 12.02 -1 11 C-1 7.21293268 -0.5745952 3.73486879 0 0 Z " fill="#54526B" transform="translate(468,203)"/>
<path d="M0 0 C2.97 1.98 2.97 1.98 6 4 C5.67 4.66 5.34 5.32 5 6 C3.125 5.75 3.125 5.75 1 5 C-0.25 2.9375 -0.25 2.9375 -1 1 C-0.67 0.67 -0.34 0.34 0 0 Z " fill="#E6E6D6" transform="translate(440,229)"/>
<path d="M0 0 C1.65 0 3.3 0 5 0 C5.66 1.65 6.32 3.3 7 5 C6.01 5.33 5.02 5.66 4 6 C2.68 4.02 1.36 2.04 0 0 Z " fill="#2A2A4F" transform="translate(462,207)"/>
<path d="M0 0 C3.36720387 1.39332574 4.9859524 2.9789286 7 6 C4 6 4 6 1.8125 4.125 C0 2 0 2 0 0 Z " fill="#3C405F" transform="translate(444,225)"/>
<path d="M0 0 C1.65 1.65 3.3 3.3 5 5 C4.01 5.33 3.02 5.66 2 6 C1.01 5.01 0.02 4.02 -1 3 C-0.67 2.01 -0.34 1.02 0 0 Z " fill="#294078" transform="translate(692,384)"/>
</svg>
